<svg width="158" height="44" viewBox="0 0 158 44" fill="none" xmlns="http://www.w3.org/2000/svg">
<g clip-path="url(#clip0_3753_780)">
<path d="M53.2033 14.5321V29.4679H50.0433V17.5196H48.2192L46.5223 29.4679H43.341L45.4835 14.5321H53.2033Z" fill="#1A1A1A"/>
<path d="M65.081 14.5321V17.5196H58.934V20.5047H64.7239V23.4922H58.934V26.4812H65.0849V29.4679H55.9604V14.5321H65.081Z" fill="#1A1A1A"/>
<path d="M76.9579 14.5321V17.5196H70.9768V29.4679H67.8381V14.5321H76.9579Z" fill="#1A1A1A"/>
<path d="M81.667 29.5752C80.7759 29.5752 80.0336 29.2838 79.44 28.701C78.8465 28.1182 78.5494 27.3782 78.5489 26.4812V17.5196C78.5489 16.6231 78.846 15.8834 79.44 15.3006C80.0341 14.7178 80.7765 14.4264 81.667 14.4264H84.5727C85.4627 14.4264 86.2051 14.7178 86.7997 15.3006C87.3943 15.8834 87.6911 16.6231 87.69 17.5196V26.4812C87.69 27.3772 87.3932 28.1168 86.7997 28.7002C86.2061 29.2835 85.4638 29.5749 84.5727 29.5744L81.667 29.5752ZM84.2543 26.5877C84.5229 26.5877 84.6572 26.4526 84.6572 26.1824V17.8184C84.6572 17.5482 84.5229 17.4123 84.2543 17.4123H81.9846C81.9338 17.4103 81.8832 17.4188 81.8357 17.4373C81.7883 17.4557 81.7452 17.4837 81.7089 17.5196C81.6721 17.5596 81.6438 17.6067 81.6256 17.6581C81.6074 17.7094 81.5997 17.764 81.6031 17.8184V26.1824C81.5999 26.2368 81.6076 26.2913 81.6258 26.3426C81.644 26.394 81.6722 26.4411 81.7089 26.4812C81.7452 26.517 81.7884 26.5449 81.8358 26.5632C81.8832 26.5815 81.9339 26.5898 81.9846 26.5877H84.2543Z" fill="#1A1A1A"/>
<path d="M90.2354 29.4679V14.5321H98.889V17.5196H93.201V20.5047H96.361C96.8835 20.5009 97.3969 20.6414 97.8455 20.9108C98.2921 21.175 98.6644 21.5495 98.927 21.9988C99.1948 22.4501 99.3344 22.9666 99.3306 23.4922V26.4812C99.3345 27.0068 99.1948 27.5233 98.927 27.9746C98.6583 28.4301 98.2742 28.8056 97.8138 29.0626C97.3318 29.3353 96.7868 29.4751 96.2338 29.4679H90.2354ZM95.9621 26.4812C96.2307 26.4812 96.365 26.3461 96.365 26.0759V23.8991C96.365 23.6288 96.2307 23.4937 95.9621 23.4937H93.2042V26.4812H95.9621Z" fill="#1A1A1A"/>
<path d="M107.797 14.5321H110.766V26.4812C110.766 27.3772 110.469 28.1168 109.876 28.7002C109.282 29.2835 108.54 29.5749 107.649 29.5744H104.805C103.913 29.5744 103.171 29.283 102.578 28.7002C101.984 28.1174 101.687 27.3777 101.686 26.4812V25.3527H104.699V26.1633C104.696 26.2202 104.705 26.2769 104.725 26.3301C104.745 26.3833 104.776 26.4317 104.816 26.4725C104.853 26.5109 104.897 26.5411 104.946 26.5614C104.996 26.5816 105.048 26.5914 105.102 26.5901H107.393C107.66 26.5901 107.796 26.4478 107.796 26.1633V23.4937H104.783C103.893 23.4937 103.15 23.1986 102.556 22.6084C101.962 22.0181 101.665 21.2748 101.666 20.3783V14.5321H104.805V20.1009C104.801 20.1553 104.809 20.2099 104.827 20.2612C104.845 20.3125 104.874 20.3597 104.91 20.3998C104.947 20.4355 104.99 20.4634 105.037 20.4817C105.085 20.5 105.135 20.5084 105.186 20.5063H107.793L107.797 14.5321Z" fill="#1A1A1A"/>
<path d="M119.398 20.5047V14.5321H122.538V29.4679H119.398V23.4937H116.554V29.4679H113.415V14.5321H116.554V20.5047H119.398Z" fill="#1A1A1A"/>
<path d="M135.114 14.5106L132.803 21.9813L135.136 29.4918H131.87L130.067 23.582H128.433V29.4703H125.294V14.5321H128.433V20.4252H130.045L131.869 14.5146L135.114 14.5106Z" fill="#1A1A1A"/>
<path d="M146.059 14.5321V17.5196H139.909V20.5047H145.699V23.4922H139.909V26.4812H146.06V29.4679H136.939V14.5321H146.059Z" fill="#1A1A1A"/>
<path d="M148.816 29.4679V14.5321H154.861C155.751 14.5321 156.497 14.8235 157.099 15.4063C157.7 15.9891 158.001 16.7291 158 17.6261V20.3998C158 21.2962 157.7 22.0359 157.099 22.6187C156.498 23.2015 155.752 23.4929 154.861 23.4929H151.955V29.4671L148.816 29.4679ZM154.627 20.5047C154.733 20.5077 154.836 20.4695 154.914 20.3982C154.954 20.3597 154.985 20.3131 155.005 20.2616C155.025 20.21 155.034 20.1546 155.03 20.0993V17.9249C155.034 17.8696 155.025 17.8143 155.005 17.7627C154.985 17.7111 154.954 17.6645 154.914 17.6261C154.836 17.5551 154.733 17.517 154.627 17.5196H151.849V20.5047H154.627Z" fill="#1A1A1A"/>
<path d="M37.6119 32.9235V11.0773L18.8059 0.154182L0 11.0773V32.9235L18.8059 43.8458L37.6119 32.9235Z" fill="#1A1A1A"/>
<path d="M35.4607 11.9118L18.8059 21.5855L2.15196 11.9118L18.8059 2.23882L35.4607 11.9118Z" fill="#FFD203"/>
<path d="M18.8059 35.4222V40.9315L2.15117 31.2585V25.75L18.8059 35.4222Z" fill="#FFD203"/>
<path d="M18.8059 21.5847V28.5039L2.15117 18.8309V11.9126L18.8059 21.5847Z" fill="#FFD203"/>
<path d="M18.8059 28.5039V35.4222L2.15117 25.7501V18.8309L18.8059 28.5039Z" fill="#FFD203"/>
<path d="M35.4599 11.9118V18.8309L31.9381 20.8758L23.3192 25.882L18.8067 28.5031V21.5839L35.4599 11.9118Z" fill="#FFD203"/>
<path d="M18.8067 28.5031L23.3192 25.882V32.8011L18.8067 35.4222V28.5031Z" fill="#FFD203"/>
<path d="M18.8067 35.4222L23.3192 32.8011V38.3096L18.8067 40.9307V35.4222Z" fill="#FFD203"/>
<path d="M35.4599 18.8309V25.7493L31.9381 27.795V20.8758L35.4599 18.8309Z" fill="#FFD203"/>
<path d="M35.4599 25.7493V31.2585L31.9381 33.3034V27.795L35.4599 25.7493Z" fill="#FFD203"/>
<path d="M16.9613 9.34552C17.0756 9.41112 17.1944 9.46849 17.3168 9.51719C17.3247 9.51719 17.331 9.52514 17.3389 9.52832C17.3438 9.52955 17.3485 9.53114 17.3531 9.53308C17.444 9.56885 17.538 9.59984 17.6344 9.62845L17.6565 9.63561C17.6786 9.64197 17.7015 9.64673 17.7236 9.6523C17.7774 9.6666 17.8311 9.68011 17.8856 9.69283L17.9298 9.70316C17.9512 9.70793 17.9733 9.71031 17.9946 9.71429C18.0404 9.72303 18.0863 9.73177 18.1329 9.73893L18.1882 9.74846C18.2087 9.74846 18.2292 9.74846 18.2498 9.75562L18.3801 9.76992C18.4007 9.76992 18.4212 9.77548 18.4425 9.77707H18.501C18.5445 9.77707 18.5887 9.78264 18.6329 9.78423C18.6551 9.78423 18.6772 9.78423 18.6993 9.78423C18.7214 9.78423 18.7348 9.78423 18.753 9.78423C18.8004 9.78423 18.8478 9.78423 18.896 9.78423H18.9671H19.009C19.0674 9.78423 19.1259 9.77787 19.1844 9.7731L19.2562 9.76833H19.2784C19.3787 9.75721 19.4774 9.74369 19.5754 9.72621H19.5896L19.6742 9.70793C19.7223 9.6976 19.7713 9.68806 19.8187 9.67694L19.9214 9.64912C19.9665 9.6364 20.0115 9.62448 20.0557 9.61018L20.0842 9.60223C20.1008 9.59666 20.115 9.58951 20.1308 9.58395C20.2011 9.56011 20.2698 9.53388 20.3362 9.50447C20.3615 9.49414 20.3867 9.48381 20.4112 9.47189C20.4958 9.43451 20.5784 9.39259 20.6585 9.34632L20.6901 9.32804C20.7138 9.31294 20.7343 9.29704 20.7572 9.28274C20.7802 9.26843 20.822 9.24061 20.8513 9.21916C20.8805 9.1977 20.9002 9.18101 20.9247 9.16114C20.9492 9.14127 20.98 9.11743 21.0037 9.09438L21.0195 9.08087C21.0298 9.07133 21.0369 9.061 21.0464 9.05146C21.0855 9.01391 21.1224 8.97411 21.157 8.93225C21.1649 8.92271 21.1744 8.91477 21.1815 8.90602C21.1886 8.89728 21.1933 8.88774 21.1996 8.879C21.2218 8.8488 21.2423 8.8178 21.2613 8.78681C21.2692 8.77409 21.2794 8.76138 21.2865 8.74866C21.2937 8.73595 21.2929 8.73515 21.296 8.72879C21.3102 8.70177 21.3221 8.67395 21.3339 8.64932C21.3458 8.62468 21.3505 8.61753 21.3569 8.60163C21.3632 8.58574 21.3569 8.59051 21.3608 8.58494C21.3703 8.55871 21.3766 8.53249 21.3837 8.50547C21.3908 8.47844 21.3956 8.4697 21.3987 8.45142C21.3987 8.44665 21.3987 8.44189 21.3987 8.43712C21.4035 8.4101 21.4058 8.38228 21.4082 8.35764C21.4106 8.33301 21.4137 8.32108 21.4145 8.3036V8.27976L21.4201 6.37791C21.4201 6.40334 21.4161 6.42877 21.4137 6.45738C21.4114 6.486 21.409 6.51222 21.4043 6.53686C21.3995 6.5615 21.3932 6.58137 21.3877 6.60441C21.3821 6.62746 21.3742 6.65687 21.3648 6.68389C21.3553 6.71091 21.3474 6.72681 21.3379 6.74826C21.3284 6.76972 21.3142 6.8031 21.3 6.82774C21.2858 6.85238 21.2771 6.86668 21.2652 6.88576C21.2463 6.91675 21.2257 6.94775 21.2036 6.97795C21.1815 7.00815 21.1759 7.01371 21.1609 7.0312C21.1273 7.0736 21.0914 7.11419 21.0535 7.15279C21.0393 7.1671 21.0258 7.18141 21.01 7.19492C20.9942 7.20843 20.9571 7.24022 20.931 7.26168C20.905 7.28313 20.8844 7.30141 20.8584 7.31969C20.8323 7.33797 20.7967 7.36181 20.7644 7.38327C20.732 7.40473 20.7004 7.42698 20.6648 7.44765C20.5858 7.49295 20.5068 7.53428 20.4183 7.57322L20.3433 7.60501C20.2761 7.63362 20.2082 7.65905 20.1379 7.68449L20.0628 7.70992C20.0186 7.72422 19.9736 7.73614 19.9285 7.74886L19.825 7.77668C19.7776 7.7886 19.7295 7.79813 19.6813 7.80767C19.6481 7.81403 19.6157 7.82198 19.5825 7.82754C19.4846 7.84503 19.385 7.85933 19.2855 7.86966L19.1923 7.87761C19.1338 7.88238 19.0745 7.88635 19.0161 7.88953H18.9031C18.8549 7.88953 18.8075 7.88953 18.7593 7.88953C18.7111 7.88953 18.6803 7.88953 18.64 7.88953C18.5998 7.88953 18.5516 7.88953 18.5073 7.88238C18.4631 7.87523 18.4283 7.87602 18.3872 7.87205C18.3462 7.86807 18.2996 7.86331 18.2561 7.85774C18.2127 7.85218 18.1771 7.84741 18.14 7.84105C18.1028 7.83469 18.0468 7.82595 18.0017 7.81721L17.8911 7.7886C17.8366 7.77668 17.7829 7.76237 17.7292 7.74807L17.6391 7.72422C17.5435 7.69561 17.4495 7.66462 17.3587 7.62885L17.3215 7.61296C17.1995 7.56437 17.081 7.50727 16.9668 7.44209C16.451 7.14405 16.195 6.75065 16.195 6.35804L16.1895 8.26545C16.1879 8.65329 16.4454 9.04669 16.9613 9.34552Z" fill="#1A1A1A"/>
<path d="M23.8667 13.5506C23.9812 13.6159 24.0999 13.6732 24.2222 13.7222L24.2443 13.7326L24.2585 13.7373C24.3494 13.7731 24.4434 13.8049 24.5398 13.8327L24.5619 13.8407C24.584 13.847 24.6069 13.851 24.629 13.8573C24.682 13.8717 24.7365 13.8852 24.791 13.8971L24.8344 13.9082L24.9 13.9193C24.9458 13.9281 24.9916 13.936 25.0383 13.9432L25.0936 13.9535L25.1544 13.9599L25.2855 13.975L25.3479 13.9821C25.3669 13.9821 25.3866 13.9821 25.4056 13.9821L25.5383 13.9893H25.6047H25.8725H25.9144C25.9728 13.9893 26.0313 13.9821 26.0897 13.9774C26.1134 13.9774 26.1379 13.9774 26.1616 13.9726H26.1838C26.2841 13.9623 26.3828 13.9487 26.4808 13.9313H26.495C26.5235 13.9265 26.5511 13.9193 26.5796 13.913C26.6277 13.9034 26.6759 13.8939 26.7233 13.882C26.7707 13.8701 26.7928 13.8637 26.8268 13.8542C26.8608 13.8446 26.9169 13.8295 26.9611 13.816L26.9896 13.8073C27.0054 13.8025 27.0204 13.7954 27.0362 13.7898C27.1065 13.7659 27.1752 13.7397 27.2416 13.7103L27.3166 13.6785C27.4009 13.641 27.4832 13.5991 27.5631 13.553L27.5955 13.5339C27.6192 13.5196 27.6397 13.5037 27.6626 13.4886C27.6855 13.4735 27.7274 13.4473 27.7567 13.4258C27.7859 13.4043 27.8056 13.3869 27.8293 13.3678C27.853 13.3487 27.8846 13.3233 27.9083 13.301L27.9249 13.2875C27.9352 13.278 27.9423 13.2676 27.9518 13.2581C27.9909 13.2203 28.0278 13.1802 28.0624 13.1381C28.0703 13.1294 28.0798 13.1206 28.0869 13.1119C28.094 13.1031 28.0979 13.0936 28.105 13.0848C28.1269 13.0554 28.1472 13.0249 28.1659 12.9934C28.1753 12.981 28.184 12.968 28.1919 12.9545C28.1959 12.9481 28.1975 12.9418 28.2014 12.9346C28.2156 12.9076 28.2275 12.8806 28.2393 12.8552C28.2464 12.8393 28.2559 12.8234 28.2615 12.8075C28.2634 12.802 28.265 12.7964 28.2662 12.7908C28.2757 12.7654 28.282 12.7391 28.2891 12.7113C28.2962 12.6835 28.3002 12.6755 28.3041 12.6581C28.3041 12.6533 28.3041 12.6485 28.3041 12.6438C28.3089 12.6159 28.3112 12.5889 28.3136 12.5643C28.316 12.5396 28.3191 12.5285 28.3191 12.5102C28.3195 12.5026 28.3195 12.4949 28.3191 12.4872L28.3247 10.5845C28.3247 10.6108 28.3199 10.6362 28.3183 10.664C28.3168 10.6918 28.3136 10.7197 28.3089 10.7435C28.3041 10.7673 28.2978 10.7888 28.2915 10.8111C28.2856 10.8379 28.2782 10.8645 28.2694 10.8905C28.2615 10.912 28.252 10.9334 28.2425 10.9541C28.233 10.9748 28.2188 11.0089 28.2046 11.0336C28.1904 11.0582 28.1809 11.0725 28.169 11.0916C28.1572 11.1107 28.1303 11.1528 28.1074 11.1838C28.0948 11.2013 28.0798 11.2188 28.0655 11.2362C28.0312 11.2785 27.9943 11.3186 27.9549 11.3563C27.9399 11.3706 27.9273 11.3849 27.9115 11.3992C27.8957 11.4135 27.8586 11.4437 27.8325 11.4659C27.8064 11.4882 27.7859 11.5049 27.7598 11.5239C27.7337 11.543 27.6974 11.5661 27.6658 11.5867C27.6342 11.6074 27.6018 11.6304 27.5663 11.6511C27.4863 11.6972 27.404 11.7391 27.3198 11.7767L27.2408 11.8093C27.1736 11.8371 27.1049 11.8633 27.0354 11.8887C27.0101 11.8975 26.9856 11.907 26.9603 11.915C26.9161 11.9285 26.8711 11.9412 26.826 11.9531C26.781 11.965 26.7573 11.973 26.7225 11.9817C26.6751 11.9929 26.6269 12.0024 26.5788 12.0119L26.4792 12.0326C26.382 12.0501 26.2825 12.0636 26.183 12.0739L26.0897 12.0819C26.0313 12.0866 25.972 12.0914 25.9128 12.0938H25.7998C25.7524 12.0938 25.705 12.0938 25.6568 12.0938H25.5375L25.4048 12.0866L25.2839 12.0763C25.2405 12.0723 25.197 12.0668 25.1536 12.0612L25.0367 12.0453L24.8984 12.0207L24.7902 11.9984C24.7357 11.9865 24.6812 11.973 24.6282 11.9587L24.5382 11.934C24.4418 11.9062 24.3486 11.8744 24.2577 11.8387L24.2206 11.8236C24.0986 11.7745 23.9801 11.7172 23.8659 11.6519C23.35 11.3523 23.0925 10.9597 23.0933 10.5671L23.0877 12.4697C23.0933 12.8583 23.3508 13.2509 23.8667 13.5506Z" fill="#1A1A1A"/>
<path d="M10.112 13.5506C10.2262 13.6158 10.3447 13.6732 10.4667 13.7222L10.4896 13.7326L10.5038 13.7373C10.5947 13.7731 10.6887 13.8049 10.7843 13.8327L10.8072 13.8406C10.8285 13.847 10.8514 13.851 10.8736 13.8573C10.9273 13.8716 10.981 13.8852 11.0363 13.8971L11.0797 13.9082L11.1445 13.9193C11.1903 13.9281 11.2362 13.936 11.2828 13.9432L11.3389 13.9535L11.3997 13.9599L11.53 13.975C11.5514 13.975 11.5719 13.9797 11.5925 13.9821H11.6509L11.7828 13.9893H11.85H12.117C12.1312 13.9893 12.1455 13.9893 12.1589 13.9893C12.2181 13.9893 12.2766 13.9821 12.3351 13.9773C12.3588 13.9773 12.3832 13.9773 12.4069 13.9726H12.4291C12.5286 13.9622 12.6281 13.9487 12.7253 13.9312H12.7395C12.7688 13.9265 12.7964 13.9193 12.8249 13.913C12.873 13.9034 12.9212 13.8939 12.9686 13.882C13.0034 13.874 13.0374 13.8637 13.0721 13.8542C13.1069 13.8446 13.1622 13.8295 13.2064 13.816L13.2349 13.8073C13.2507 13.8025 13.2657 13.7953 13.2815 13.7898C13.3518 13.7659 13.4197 13.7397 13.4869 13.7103L13.5619 13.6785C13.6462 13.641 13.7285 13.5991 13.8084 13.5529L13.84 13.5339C13.8645 13.5196 13.885 13.5037 13.9079 13.4886C13.9309 13.4735 13.9719 13.4472 14.002 13.4258C14.032 13.4043 14.0509 13.3868 14.0746 13.3678C14.0983 13.3487 14.1299 13.3233 14.1536 13.301L14.1694 13.2875C14.1797 13.278 14.1868 13.2676 14.1971 13.2581C14.236 13.2201 14.2729 13.18 14.3077 13.1381C14.3148 13.1293 14.3251 13.1206 14.3322 13.1119C14.3393 13.1031 14.3432 13.0936 14.3503 13.0848C14.3725 13.0546 14.3922 13.0244 14.4112 12.9934C14.4191 12.9807 14.4301 12.968 14.4372 12.9545C14.4444 12.941 14.4428 12.9418 14.4467 12.9346C14.4609 12.9076 14.4728 12.8806 14.4846 12.8552C14.4918 12.8393 14.5004 12.8234 14.5068 12.8075C14.5087 12.802 14.5103 12.7964 14.5115 12.7908C14.5205 12.7648 14.5279 12.7382 14.5336 12.7113C14.5384 12.6938 14.5455 12.6755 14.5494 12.6581C14.549 12.6533 14.549 12.6485 14.5494 12.6437C14.5542 12.6159 14.5557 12.5889 14.5581 12.5643C14.5605 12.5396 14.5644 12.5285 14.5644 12.5102C14.5648 12.5026 14.5648 12.4949 14.5644 12.4872L14.5692 10.5845C14.5692 10.6108 14.5652 10.6362 14.5629 10.664C14.5612 10.6907 14.558 10.7172 14.5534 10.7435C14.5491 10.7663 14.5435 10.7888 14.5368 10.811C14.5297 10.8373 14.5234 10.8635 14.5147 10.8905C14.506 10.9175 14.4965 10.9334 14.4878 10.9541C14.4791 10.9748 14.4641 11.0089 14.4491 11.0336C14.4341 11.0582 14.4262 11.0725 14.4143 11.0916C14.4025 11.1107 14.3756 11.1528 14.3527 11.1838L14.3108 11.2362C14.2761 11.2782 14.2392 11.3182 14.2002 11.3562L14.1568 11.3992C14.1315 11.4214 14.1039 11.4437 14.0778 11.4659C14.0517 11.4882 14.0304 11.5049 14.0051 11.5239C13.9798 11.543 13.9427 11.5661 13.9111 11.5867C13.8795 11.6074 13.8471 11.6304 13.8116 11.6511C13.7326 11.6972 13.6496 11.7377 13.5651 11.7767L13.4861 11.8093C13.4189 11.8371 13.3502 11.8633 13.2799 11.8887C13.2554 11.8975 13.2309 11.907 13.2009 11.915C13.1574 11.9285 13.1124 11.9412 13.0666 11.9531C13.0326 11.9626 12.9987 11.973 12.9639 11.9817C12.9165 11.9928 12.8683 12.0024 12.8201 12.0119L12.7206 12.0326C12.6226 12.0501 12.5239 12.0636 12.4235 12.0739L12.3311 12.0819C12.2719 12.0866 12.2134 12.0914 12.1541 12.0938H12.0412C11.9938 12.0938 11.9456 12.0938 11.8982 12.0938H11.7781L11.6462 12.0866L11.534 12.0723C11.4905 12.0683 11.4471 12.0628 11.4036 12.0572L11.2867 12.0413L11.1485 12.0167L11.0402 11.9944C10.9849 11.9825 10.9312 11.969 10.8775 11.9547L10.7882 11.9301C10.6919 11.9022 10.5978 11.8705 10.507 11.8347L10.4707 11.8196C10.3485 11.7704 10.2297 11.7131 10.1152 11.6479C9.59929 11.3483 9.34175 10.9557 9.34333 10.5631L9.3378 12.4657C9.33859 12.8583 9.59613 13.2509 10.112 13.5506Z" fill="#1A1A1A"/>
<path d="M20.6514 5.28909C21.6784 5.88436 21.6784 6.84919 20.6632 7.44367C19.6481 8.03815 17.9915 8.03894 16.9668 7.44367C15.9422 6.8484 15.9398 5.88436 16.955 5.28909C17.9701 4.69382 19.6268 4.69382 20.6514 5.28909Z" fill="#FFD203"/>
<path d="M27.5568 9.49414C28.5838 10.0894 28.5838 11.0534 27.5686 11.6479C26.5535 12.2424 24.8968 12.2432 23.8722 11.6479C22.8476 11.0527 22.8413 10.0934 23.858 9.49414C24.8747 8.8949 26.5314 8.90125 27.5568 9.49414Z" fill="#FFD203"/>
<path d="M13.8021 9.49414C14.8291 10.0894 14.8291 11.0534 13.8139 11.6479C12.7988 12.2424 11.1422 12.2432 10.1167 11.6479C9.09132 11.0526 9.08974 10.0894 10.1049 9.49414C11.12 8.89886 12.7767 8.90125 13.8021 9.49414Z" fill="#FFD203"/>
<path d="M20.6514 13.5903C21.6784 14.1856 21.6784 15.1496 20.6632 15.7441C19.6481 16.3386 17.9915 16.3402 16.9668 15.7441C15.9422 15.148 15.9398 14.1856 16.955 13.5903C17.9701 12.995 19.6268 12.9966 20.6514 13.5903Z" fill="#FFD203"/>
<path d="M16.9613 17.6483C17.0758 17.7136 17.1946 17.771 17.3168 17.82C17.3247 17.82 17.331 17.8279 17.3389 17.8303L17.3531 17.8351C17.444 17.8709 17.538 17.9026 17.6344 17.9313C17.6419 17.9332 17.6493 17.9355 17.6565 17.9384C17.6786 17.9448 17.7015 17.9495 17.7236 17.9551C17.7774 17.9694 17.8311 17.9829 17.8856 17.9948L17.9298 18.006L17.9946 18.0171L18.1329 18.0417L18.1882 18.0513L18.2498 18.0584L18.3801 18.0727C18.4007 18.0727 18.4212 18.0783 18.4425 18.0799H18.501C18.5445 18.0799 18.5887 18.0846 18.6329 18.087C18.6551 18.087 18.6772 18.087 18.6993 18.087H18.753C18.8004 18.087 18.8478 18.087 18.896 18.087C18.9197 18.087 18.9434 18.087 18.9671 18.087H19.009C19.0674 18.087 19.1259 18.0799 19.1844 18.0751C19.2088 18.0751 19.2325 18.0751 19.2562 18.0703H19.2784C19.3787 18.06 19.4774 18.0465 19.5754 18.029H19.5896L19.6742 18.0107C19.7223 18.0004 19.7713 17.9909 19.8187 17.9797C19.8535 17.971 19.8875 17.9607 19.9214 17.9511C19.9554 17.9416 20.0115 17.9265 20.0557 17.913L20.0842 17.905C20.1008 17.8995 20.115 17.8923 20.1308 17.8867C20.2011 17.8629 20.2698 17.8367 20.3362 17.8073L20.4112 17.7747C20.4965 17.7357 20.5795 17.6952 20.6585 17.6491L20.6901 17.63C20.7138 17.6157 20.7343 17.5998 20.7572 17.5847C20.7802 17.5696 20.822 17.5434 20.8513 17.522C20.8805 17.5005 20.9002 17.483 20.9247 17.4639C20.9492 17.4449 20.98 17.4202 21.0037 17.3972L21.0195 17.3837C21.0298 17.3741 21.0369 17.3638 21.0464 17.3543C21.0857 17.3166 21.1227 17.2766 21.157 17.2343C21.1649 17.2255 21.1744 17.2176 21.1815 17.208C21.1886 17.1985 21.1933 17.1905 21.1996 17.1818C21.2218 17.1508 21.2423 17.1206 21.2613 17.0896C21.2692 17.0769 21.2794 17.0642 21.2865 17.0515C21.2937 17.0387 21.2929 17.0379 21.296 17.0316C21.3102 17.0046 21.3221 16.9768 21.3339 16.9521C21.3458 16.9275 21.3505 16.9203 21.3569 16.9036C21.3569 16.8989 21.3569 16.8933 21.3608 16.8877C21.3703 16.8615 21.3766 16.8353 21.3837 16.8083C21.3908 16.7812 21.3956 16.7733 21.3987 16.755C21.3987 16.7502 21.3987 16.7455 21.3987 16.7407C21.4035 16.7137 21.4058 16.6859 21.4082 16.6612C21.4106 16.6366 21.4137 16.6247 21.4145 16.6064V16.5834L21.4201 14.6807C21.4201 14.7069 21.4161 14.7324 21.4137 14.7602C21.4114 14.788 21.409 14.815 21.4043 14.8397C21.3995 14.8643 21.3932 14.885 21.3877 14.9072C21.3821 14.9295 21.3742 14.9597 21.3648 14.9867C21.3553 15.0137 21.3474 15.0296 21.3379 15.0511C21.3284 15.0725 21.3142 15.1059 21.3 15.1305C21.2858 15.1552 21.2771 15.1695 21.2652 15.1886C21.2534 15.2076 21.2257 15.2505 21.2036 15.2807L21.1609 15.334C21.1264 15.3759 21.0895 15.4157 21.0503 15.4532C21.0361 15.4675 21.0227 15.4826 21.0069 15.4961C20.9911 15.5096 20.954 15.5406 20.9279 15.5629C20.9018 15.5851 20.8813 15.6018 20.8552 15.6209C20.8291 15.64 20.7936 15.663 20.7612 15.6837C20.7288 15.7044 20.6972 15.7274 20.6617 15.7481C20.5819 15.7945 20.4996 15.8364 20.4152 15.8736L20.3401 15.9062C20.273 15.934 20.205 15.9603 20.1347 15.9857L20.0597 16.0111C20.0154 16.0254 19.9704 16.0374 19.9254 16.0501L19.8219 16.0779C19.7745 16.089 19.7263 16.0985 19.6781 16.1089C19.6449 16.1152 19.6125 16.1232 19.5794 16.1288C19.4814 16.1462 19.3819 16.1597 19.2823 16.1709C19.2515 16.1709 19.2199 16.1756 19.1891 16.178C19.1306 16.1836 19.0714 16.1876 19.0129 16.1899H18.9C18.8518 16.1899 18.8044 16.1899 18.7562 16.1899H18.6369L18.5042 16.1828L18.3841 16.1725C18.3398 16.1685 18.2964 16.1637 18.2529 16.1582L18.1368 16.1415C18.0902 16.1343 18.0436 16.1256 17.9986 16.1168C17.9535 16.1081 17.9259 16.1033 17.8895 16.0954C17.835 16.0827 17.7813 16.0691 17.7276 16.0548L17.6375 16.031C17.5419 16.0024 17.4479 15.9706 17.3571 15.9356L17.32 15.9197C17.1979 15.8709 17.0794 15.8135 16.9652 15.7481C16.4494 15.4484 16.1918 15.0558 16.1926 14.664L16.1879 16.5659C16.1879 16.9561 16.4454 17.3487 16.9613 17.6483Z" fill="#1A1A1A"/>
<path d="M1.60133 18.8309L1.7459 11.9126L1.76091 11.1981L2.3542 11.5589L18.8059 21.5847L1.94893 12.2654L2.55644 11.9126L2.7018 18.8309H1.60133Z" fill="#1A1A1A"/>
<path d="M19.3329 21.2796L21.3079 20.0374L23.29 18.8071L27.2637 16.3632L31.25 13.9432C32.578 13.1349 33.9155 12.3425 35.2482 11.5414V12.2821C33.8491 11.4953 32.4493 10.7093 31.0565 9.91218L26.8734 7.52792L22.7007 5.12537L18.531 2.71806H19.084L14.9105 5.12458C13.5193 5.9249 12.1336 6.73396 10.7377 7.52712L6.557 9.91059C5.16423 10.7053 3.76435 11.4937 2.37 12.2806V11.5422C3.70194 12.3441 5.03941 13.1317 6.3674 13.9448L10.349 16.3648L14.3227 18.8079L16.3048 20.0382L18.2798 21.2796L16.2258 20.1796L14.1758 19.067L10.0859 16.8258L6.004 14.5623C4.64362 13.8105 3.29351 13.0411 1.93708 12.2806L1.30508 11.9237L1.94182 11.5422C3.31879 10.7173 4.69418 9.89072 6.07747 9.07848L10.221 6.62587C11.5996 5.80171 12.99 5.00139 14.378 4.18915L18.535 1.76038L18.8099 1.60143L19.0848 1.76038L23.2426 4.18915L27.3972 6.62269L31.5408 9.07531C32.924 9.88993 34.3002 10.7157 35.6772 11.539L36.3155 11.9221L35.6772 12.2798C34.3216 13.0395 32.9707 13.8089 31.6111 14.5615L27.5339 16.8258L23.444 19.0662L21.394 20.1788L19.3329 21.2796Z" fill="#1A1A1A"/>
<path d="M1.46387 25.75L1.64478 18.8309L1.66848 17.936L2.40476 18.3898L18.806 28.5039L1.89837 19.2728L2.65835 18.8309L2.83926 25.75H1.46387Z" fill="#1A1A1A"/>
<path d="M1.46387 32.0509L1.61634 25.75L1.63925 24.8011L2.41898 25.2835L18.806 35.4222L1.88336 26.2166L2.68679 25.75L2.83926 32.0509H1.46387Z" fill="#1A1A1A"/>
<path d="M2.15117 11.9118L18.806 21.5855L35.4599 11.9118L18.806 2.23882L2.15117 11.9118Z" fill="#FFD203"/>
<path d="M18.806 21.5847V28.5039L35.4607 18.8309V11.9126L18.806 21.5847Z" fill="#FFD203"/>
<path d="M16.9605 5.28909C15.9335 5.88436 15.9335 6.84919 16.9487 7.44367C17.9638 8.03815 19.6204 8.03894 20.6451 7.44367C21.6697 6.8484 21.6721 5.88436 20.6569 5.28909C19.6418 4.69382 17.9851 4.69382 16.9605 5.28909Z" fill="#FFD203"/>
<path d="M10.0551 9.49414C9.02812 10.0894 9.02812 11.0534 10.0433 11.6479C11.0584 12.2424 12.7151 12.2432 13.7397 11.6479C14.7643 11.0526 14.7706 10.0894 13.7523 9.49414C12.734 8.89886 11.0805 8.90125 10.0551 9.49414Z" fill="#FFD203"/>
<path d="M23.8098 9.49414C22.7828 10.0894 22.7828 11.0534 23.798 11.6479C24.8131 12.2424 26.4697 12.2432 27.4952 11.6479C28.5206 11.0526 28.5222 10.0894 27.507 9.49414C26.4919 8.89886 24.8352 8.90125 23.8098 9.49414Z" fill="#FFD203"/>
<path d="M16.9605 13.5903C15.9335 14.1856 15.9335 15.1496 16.9487 15.7441C17.9638 16.3386 19.6204 16.3402 20.6451 15.7441C21.6697 15.148 21.6721 14.1856 20.6569 13.5903C19.6418 12.995 17.9851 12.9966 16.9605 13.5903Z" fill="#FFD203"/>
<path d="M20.6506 9.34552C20.5363 9.41112 20.4175 9.46849 20.2951 9.51719C20.2872 9.51719 20.2809 9.52514 20.273 9.52831C20.2681 9.52955 20.2634 9.53114 20.2588 9.53308C20.1679 9.56885 20.0739 9.59984 19.9775 9.62845L19.9554 9.63561C19.9333 9.64196 19.9104 9.64673 19.8882 9.6523C19.8345 9.6666 19.7808 9.68011 19.7263 9.69283L19.6828 9.70316C19.6607 9.70793 19.6394 9.71031 19.6173 9.71429C19.5715 9.72303 19.5256 9.73177 19.479 9.73892L19.4237 9.74846C19.4032 9.74846 19.3826 9.74846 19.3621 9.75561C19.3194 9.76091 19.276 9.76568 19.2318 9.76992C19.2112 9.76992 19.1907 9.77548 19.1693 9.77707H19.1109C19.0674 9.77707 19.0232 9.78264 18.979 9.78423C18.9568 9.78423 18.9347 9.78423 18.9126 9.78423C18.8905 9.78423 18.877 9.78423 18.8589 9.78423C18.8115 9.78423 18.7641 9.78423 18.7159 9.78423H18.644H18.6021C18.5437 9.78423 18.4852 9.77787 18.4267 9.7731L18.3549 9.76833H18.3327C18.2324 9.7572 18.1337 9.74369 18.0357 9.72621H18.0215L17.937 9.70793C17.8888 9.6976 17.8398 9.68806 17.7924 9.67693L17.6897 9.64912C17.6446 9.6364 17.5996 9.62448 17.5554 9.61017L17.5269 9.60223C17.5103 9.59666 17.4961 9.58951 17.4803 9.58395C17.41 9.5601 17.3413 9.53388 17.2749 9.50447C17.2496 9.49414 17.2244 9.48381 17.1959 9.47189C17.1113 9.43451 17.0288 9.39259 16.9487 9.34632L16.9171 9.32804C16.8934 9.31294 16.8728 9.29704 16.8499 9.28274C16.827 9.26843 16.7851 9.24061 16.7559 9.21916C16.7267 9.1977 16.7069 9.18101 16.6824 9.16114C16.6579 9.14127 16.6271 9.11743 16.6034 9.09438C16.5979 9.08961 16.5916 9.08564 16.5868 9.08087C16.5821 9.0761 16.5695 9.061 16.56 9.05146C16.5208 9.01391 16.4839 8.97411 16.4494 8.93225C16.4415 8.92271 16.432 8.91476 16.4249 8.90602C16.4178 8.89728 16.413 8.88774 16.4067 8.879C16.3846 8.8488 16.3641 8.8178 16.3451 8.78681C16.3372 8.77409 16.3269 8.76138 16.3198 8.74866C16.3127 8.73594 16.3135 8.73515 16.3103 8.72879C16.2961 8.70177 16.2843 8.67395 16.2724 8.64932C16.2606 8.62468 16.2558 8.61753 16.2503 8.60163C16.2484 8.59618 16.2468 8.5906 16.2456 8.58494C16.2361 8.55871 16.2298 8.53249 16.2227 8.50547C16.2155 8.47844 16.2116 8.4697 16.2076 8.45142C16.2076 8.44665 16.2076 8.44189 16.2076 8.43712C16.2029 8.4101 16.2005 8.38228 16.1982 8.35764C16.1958 8.333 16.1926 8.32108 16.1918 8.3036V8.27976L16.1863 6.37791C16.1863 6.40334 16.1903 6.42877 16.1926 6.45738C16.195 6.48599 16.1974 6.51222 16.2021 6.53686C16.2068 6.5615 16.2132 6.58136 16.2195 6.60441C16.2252 6.63134 16.2326 6.65788 16.2416 6.68389C16.2487 6.70535 16.259 6.7268 16.2685 6.74826C16.2779 6.76972 16.2922 6.8031 16.3064 6.82774C16.3206 6.85238 16.3293 6.86668 16.3412 6.88576C16.3601 6.91675 16.3807 6.94775 16.4028 6.97795C16.4249 7.00815 16.4304 7.01371 16.4454 7.0312C16.4809 7.07374 16.5186 7.11433 16.5584 7.15279C16.5734 7.1671 16.586 7.1814 16.6018 7.19491C16.6176 7.20843 16.6548 7.24022 16.6808 7.26167C16.7069 7.28313 16.7275 7.30141 16.7535 7.31969C16.7796 7.33797 16.8151 7.36181 16.8475 7.38327C16.8799 7.40473 16.9115 7.42698 16.9471 7.44765C17.0261 7.49295 17.1051 7.53428 17.1936 7.57322L17.2726 7.60501C17.3397 7.63362 17.4077 7.65905 17.478 7.68448L17.553 7.70992C17.5972 7.72422 17.6423 7.73614 17.6873 7.74886L17.7908 7.77668C17.8382 7.7886 17.8864 7.79813 17.9346 7.80767C17.9678 7.81403 18.0002 7.82198 18.0333 7.82754C18.1313 7.84502 18.2308 7.85933 18.3304 7.86966L18.4236 7.87761C18.4821 7.88238 18.5413 7.88635 18.5998 7.88953H18.7127C18.7609 7.88953 18.8083 7.88953 18.8565 7.88953C18.9047 7.88953 18.9355 7.88953 18.9758 7.88953C19.0161 7.88953 19.0643 7.88953 19.1085 7.88238C19.1528 7.87523 19.1875 7.87602 19.2286 7.87205C19.2697 7.86807 19.3163 7.8633 19.3597 7.85774L19.4767 7.84105C19.5225 7.8339 19.5691 7.82595 19.6149 7.81721L19.7231 7.79495C19.7776 7.78303 19.8314 7.76873 19.8851 7.75442L19.9752 7.73058C20.0707 7.70197 20.1647 7.67097 20.2556 7.63521L20.2927 7.61931C20.4148 7.57088 20.5334 7.51378 20.6474 7.44844C21.1633 7.14882 21.4209 6.75542 21.4201 6.3636L21.4256 8.26624C21.424 8.65329 21.1665 9.04669 20.6506 9.34552Z" fill="#1A1A1A"/>
<path d="M13.746 13.5506C13.6317 13.6157 13.5132 13.6731 13.3913 13.7222L13.3684 13.7326L13.3542 13.7373C13.2633 13.7731 13.1693 13.8049 13.0737 13.8327L13.0508 13.8407C13.0287 13.847 13.0058 13.851 12.9844 13.8573C12.9307 13.8717 12.8762 13.8852 12.8217 13.8971L12.7783 13.9082L12.7135 13.9193L12.5752 13.9432L12.5191 13.9535L12.4583 13.9599L12.3272 13.975L12.2655 13.9821H12.2071L12.0744 13.9893H12.008H11.741H11.6983C11.6399 13.9893 11.5814 13.9821 11.5229 13.9774C11.4992 13.9774 11.4748 13.9774 11.4511 13.9726H11.4289C11.3294 13.9623 11.2299 13.9487 11.1319 13.9313H11.1177C11.0892 13.9265 11.0616 13.9193 11.0331 13.913C10.985 13.9034 10.9368 13.8939 10.8894 13.882C10.842 13.8701 10.8206 13.8637 10.7859 13.8542C10.7511 13.8446 10.6958 13.8295 10.6516 13.816L10.6231 13.8073C10.6073 13.8025 10.5923 13.7954 10.5765 13.7898C10.5062 13.7659 10.4383 13.7397 10.3711 13.7103L10.2921 13.6785C10.2079 13.641 10.1256 13.5991 10.0456 13.553L10.0133 13.5339C9.98955 13.5196 9.96901 13.5037 9.9461 13.4886C9.92319 13.4735 9.88132 13.4473 9.85209 13.4258C9.82286 13.4043 9.80311 13.3869 9.77941 13.3678C9.75571 13.3487 9.72411 13.3233 9.70041 13.301L9.68382 13.2875C9.67355 13.278 9.66644 13.2676 9.65696 13.2581C9.61782 13.2203 9.58089 13.1802 9.54636 13.1381C9.53925 13.1294 9.52898 13.1206 9.52187 13.1119C9.51476 13.1031 9.51081 13.0936 9.5037 13.0848C9.48158 13.0546 9.46183 13.0244 9.44287 12.9934C9.43497 12.9807 9.42391 12.968 9.4168 12.9545C9.40969 12.941 9.41127 12.9418 9.40732 12.9346C9.3931 12.9076 9.38125 12.8806 9.3694 12.8552C9.36229 12.8393 9.35281 12.8234 9.34728 12.8075C9.34534 12.802 9.34376 12.7964 9.34254 12.7908C9.33355 12.7648 9.32616 12.7382 9.32042 12.7113C9.31568 12.6938 9.30857 12.6755 9.30462 12.6581C9.30462 12.6533 9.30462 12.6485 9.30462 12.6438C9.29988 12.6159 9.29751 12.5889 9.29514 12.5643C9.29277 12.5396 9.28961 12.5285 9.28961 12.5102C9.28922 12.5026 9.28922 12.4949 9.28961 12.4872L9.28408 10.5845C9.28408 10.6108 9.28882 10.6362 9.29119 10.664C9.29356 10.6918 9.29514 10.7197 9.29988 10.7435C9.30462 10.7673 9.31094 10.7888 9.31726 10.8111C9.32314 10.8379 9.33052 10.8645 9.33938 10.8905C9.34728 10.912 9.35676 10.9334 9.36624 10.9541C9.37572 10.9748 9.38994 11.0089 9.40416 11.0336C9.41838 11.0582 9.42786 11.0725 9.43971 11.0916C9.45156 11.1107 9.47842 11.1528 9.50133 11.1838C9.51397 11.2013 9.52898 11.2188 9.5432 11.2362C9.57753 11.2785 9.61447 11.3186 9.6538 11.3563C9.66881 11.3706 9.68145 11.3849 9.69725 11.3992C9.71305 11.4135 9.75018 11.4437 9.77625 11.4659C9.80232 11.4882 9.82365 11.5049 9.84893 11.5239C9.87421 11.543 9.91134 11.5661 9.94294 11.5867C9.97454 11.6074 10.0069 11.6304 10.0425 11.6511C10.1224 11.6972 10.2047 11.7391 10.289 11.7767L10.364 11.8093C10.4312 11.8371 10.4999 11.8633 10.5694 11.8887C10.5947 11.8975 10.6192 11.907 10.6445 11.915C10.6887 11.9285 10.7337 11.9412 10.7788 11.9531C10.8238 11.965 10.8475 11.973 10.8823 11.9817C10.9297 11.9929 10.9778 12.0024 11.026 12.0119L11.1256 12.0326C11.2227 12.0501 11.3223 12.0636 11.4226 12.0739L11.515 12.0819C11.5743 12.0866 11.6328 12.0914 11.692 12.0938H11.805C11.8524 12.0938 11.8998 12.0938 11.948 12.0938H12.068L12.2 12.0866L12.3208 12.0763C12.3643 12.0723 12.4077 12.0668 12.4512 12.0612L12.5681 12.0453L12.7064 12.0207L12.8146 11.9984C12.8691 11.9865 12.9236 11.973 12.9765 11.9587L13.0666 11.934C13.163 11.9062 13.2562 11.8744 13.3471 11.8387L13.3842 11.8236C13.5062 11.7745 13.6247 11.7172 13.7389 11.6519C14.2548 11.3523 14.5123 10.9597 14.5115 10.5671L14.517 12.4697C14.5186 12.8583 14.2611 13.2509 13.746 13.5506Z" fill="#1A1A1A"/>
<path d="M27.4999 13.5506C27.3857 13.6159 27.2672 13.6732 27.1452 13.7222L27.1223 13.7326L27.1081 13.7373C27.0172 13.7731 26.924 13.8049 26.8276 13.8327L26.8047 13.8407C26.7834 13.847 26.7605 13.851 26.7383 13.8573C26.6846 13.8717 26.6309 13.8852 26.5756 13.8971L26.5322 13.9082L26.4674 13.9193C26.4215 13.9281 26.3757 13.936 26.3291 13.9432L26.273 13.9535L26.2122 13.9599L26.0818 13.975C26.0605 13.975 26.04 13.9797 26.0194 13.9821H25.961C25.9167 13.9821 25.8733 13.9877 25.8291 13.9893H25.7619H25.4949C25.4807 13.9893 25.4664 13.9893 25.453 13.9893C25.3938 13.9893 25.3353 13.9821 25.2768 13.9774C25.2531 13.9774 25.2286 13.9774 25.2049 13.9726H25.1828C25.0833 13.9623 24.9837 13.9487 24.8866 13.9313H24.8724C24.8431 13.9265 24.8155 13.9193 24.787 13.913C24.7389 13.9034 24.6907 13.8939 24.6433 13.882C24.6085 13.874 24.5745 13.8637 24.5398 13.8542C24.505 13.8446 24.4497 13.8295 24.4063 13.816L24.377 13.8073C24.3612 13.8025 24.3462 13.7954 24.3304 13.7898C24.2609 13.7659 24.1922 13.7397 24.125 13.7103L24.05 13.6785C23.9657 13.641 23.8834 13.5991 23.8035 13.553L23.7719 13.5339C23.7474 13.5196 23.7269 13.5037 23.7039 13.4886C23.681 13.4735 23.64 13.4473 23.6099 13.4258C23.5799 13.4043 23.561 13.3869 23.5373 13.3678C23.5136 13.3487 23.482 13.3233 23.4583 13.301L23.4425 13.2875C23.4322 13.278 23.4251 13.2676 23.4148 13.2581C23.3759 13.2201 23.339 13.18 23.3042 13.1381C23.2971 13.1294 23.2868 13.1206 23.2797 13.1119C23.2726 13.1031 23.2687 13.0936 23.2623 13.0848C23.2403 13.0554 23.2197 13.0249 23.2007 12.9934C23.1928 12.9807 23.1818 12.968 23.1747 12.9545C23.1675 12.941 23.1691 12.9418 23.1652 12.9346C23.151 12.9076 23.1391 12.8806 23.1273 12.8552C23.1209 12.8393 23.1115 12.8234 23.1051 12.8075C23.0988 12.7916 23.1051 12.7963 23.1004 12.7908C23.0914 12.7648 23.084 12.7382 23.0783 12.7113C23.0735 12.6938 23.0664 12.6755 23.0633 12.6581C23.0633 12.6533 23.0633 12.6485 23.0633 12.6438C23.0585 12.6159 23.0569 12.5889 23.0546 12.5643C23.0522 12.5396 23.049 12.5285 23.0483 12.5102C23.0475 12.492 23.0483 12.4951 23.0483 12.4872L23.0435 10.5845C23.0435 10.6108 23.0475 10.6362 23.0498 10.664C23.0515 10.6907 23.0547 10.7172 23.0593 10.7435C23.0633 10.7665 23.0704 10.7888 23.0759 10.8111C23.0814 10.8333 23.0893 10.8635 23.098 10.8905C23.1067 10.9175 23.1162 10.9334 23.1249 10.9541C23.1336 10.9748 23.1486 11.0089 23.1636 11.0336C23.1786 11.0582 23.1865 11.0725 23.1983 11.0916C23.2102 11.1107 23.2371 11.1528 23.26 11.1838L23.3018 11.2362C23.3367 11.2784 23.3738 11.3184 23.4132 11.3563C23.4274 11.3706 23.4409 11.3849 23.4559 11.3992C23.4709 11.4135 23.5088 11.4437 23.5349 11.4659C23.561 11.4882 23.5823 11.5049 23.6084 11.5239C23.6344 11.543 23.67 11.5661 23.7016 11.5867C23.7332 11.6074 23.7656 11.6304 23.8011 11.6511C23.8813 11.6972 23.9639 11.7391 24.0484 11.7767L24.1227 11.8093C24.1898 11.8371 24.2585 11.8633 24.3288 11.8887C24.3533 11.8975 24.3778 11.907 24.4039 11.915C24.4473 11.9285 24.4932 11.9412 24.5382 11.9531C24.5832 11.965 24.6061 11.973 24.6409 11.9817C24.6883 11.9929 24.7365 12.0024 24.7847 12.0119L24.8842 12.0326C24.9822 12.0501 25.0809 12.0636 25.1813 12.0739L25.2745 12.0819C25.3329 12.0866 25.3914 12.0914 25.4506 12.0938H25.5636C25.611 12.0938 25.6592 12.0938 25.7066 12.0938H25.8267C25.8709 12.0938 25.9152 12.0898 25.9586 12.0866L26.0795 12.0763C26.1229 12.0723 26.1664 12.0668 26.2098 12.0612L26.3268 12.0453L26.465 12.0207L26.5732 11.9984C26.6285 11.9865 26.6822 11.973 26.736 11.9587L26.8252 11.934C26.9216 11.9062 27.0156 11.8744 27.1065 11.8387L27.1428 11.8236C27.265 11.7744 27.3838 11.717 27.4983 11.6519C28.0142 11.3523 28.2717 10.9597 28.2702 10.5671L28.2757 12.4697C28.2733 12.8583 28.0158 13.2509 27.4999 13.5506Z" fill="#1A1A1A"/>
<path d="M20.6506 17.6483C20.5361 17.7136 20.4173 17.771 20.2951 17.82C20.2872 17.82 20.2809 17.8279 20.273 17.8303L20.2588 17.8351C20.1679 17.8709 20.0739 17.9026 19.9775 17.9313L19.9554 17.9384C19.9333 17.9448 19.9104 17.9495 19.8883 17.9551C19.8345 17.9694 19.7808 17.9829 19.7263 17.9948L19.6828 18.006L19.6173 18.0171L19.479 18.0417L19.4237 18.0513L19.3621 18.0584C19.3194 18.0637 19.276 18.0685 19.2318 18.0727C19.2112 18.0727 19.1907 18.0783 19.1693 18.0799H19.1109C19.0674 18.0799 19.0232 18.0846 18.979 18.087C18.9568 18.087 18.9347 18.087 18.9126 18.087H18.8589C18.8115 18.087 18.7641 18.087 18.7159 18.087C18.6922 18.087 18.6685 18.087 18.6448 18.087H18.6029C18.5445 18.087 18.486 18.0799 18.4275 18.0751C18.403 18.0751 18.3794 18.0751 18.3557 18.0703H18.3335C18.2332 18.06 18.1344 18.0465 18.0365 18.029H18.0223L17.9377 18.0107C17.8895 18.0004 17.8406 17.9909 17.7932 17.9797C17.7584 17.971 17.7244 17.9607 17.6905 17.9511C17.6565 17.9416 17.6004 17.9265 17.5562 17.913L17.5277 17.905C17.5111 17.8995 17.4969 17.8923 17.4811 17.8867C17.4108 17.8629 17.3421 17.8367 17.2757 17.8073L17.1967 17.7747C17.1114 17.7357 17.0285 17.6952 16.9495 17.6491L16.9178 17.63C16.8941 17.6157 16.8736 17.5998 16.8507 17.5847C16.8278 17.5696 16.7859 17.5434 16.7567 17.522C16.7275 17.5005 16.7077 17.483 16.6832 17.4639C16.6587 17.4449 16.6279 17.4202 16.6042 17.3972C16.5987 17.3924 16.5924 17.3884 16.5876 17.3837C16.5829 17.3789 16.5703 17.3638 16.5608 17.3543C16.5214 17.3166 16.4845 17.2766 16.4502 17.2343C16.4423 17.2255 16.4328 17.2176 16.4257 17.208C16.4186 17.1985 16.4138 17.1905 16.4075 17.1818C16.3854 17.1508 16.3649 17.1206 16.3459 17.0896C16.338 17.0769 16.3277 17.0642 16.3206 17.0515C16.3135 17.0387 16.3143 17.0379 16.3111 17.0316C16.2969 17.0046 16.2851 16.9768 16.2732 16.9521C16.2614 16.9275 16.2566 16.9203 16.2511 16.9036C16.249 16.8985 16.2475 16.8932 16.2463 16.8877C16.2369 16.8615 16.2305 16.8353 16.2234 16.8083C16.2163 16.7812 16.2124 16.7733 16.2084 16.755C16.2084 16.7502 16.2084 16.7455 16.2084 16.7407C16.2037 16.7137 16.2013 16.6859 16.199 16.6612C16.1966 16.6366 16.1934 16.6247 16.1926 16.6064V16.5834L16.1871 14.6807C16.1871 14.7069 16.191 14.7324 16.1934 14.7602C16.1958 14.788 16.1982 14.815 16.2029 14.8397C16.2075 14.8625 16.2133 14.885 16.2203 14.9072C16.2262 14.9341 16.2335 14.9606 16.2424 14.9867C16.2495 15.0081 16.2598 15.0296 16.2693 15.0511C16.2787 15.0725 16.293 15.1059 16.3072 15.1305C16.3214 15.1552 16.3301 15.1695 16.3419 15.1886C16.3538 15.2076 16.3814 15.2505 16.4036 15.2807L16.4462 15.334C16.4808 15.3759 16.5177 15.4157 16.5568 15.4532C16.5718 15.4675 16.5845 15.4826 16.6003 15.4961C16.6161 15.5096 16.6532 15.5406 16.6793 15.5629C16.7053 15.5851 16.7259 15.6018 16.752 15.6209C16.778 15.64 16.8136 15.663 16.846 15.6837C16.8784 15.7044 16.9099 15.7274 16.9455 15.7481C17.0253 15.7945 17.1076 15.8364 17.192 15.8736L17.271 15.9062C17.3381 15.934 17.4061 15.9603 17.4764 15.9857L17.5514 16.0111C17.5957 16.0254 17.6407 16.0374 17.6857 16.0501L17.7892 16.0779C17.8366 16.089 17.8848 16.0985 17.933 16.1089C17.9662 16.1152 17.9986 16.1232 18.0318 16.1288C18.1297 16.1462 18.2292 16.1597 18.3288 16.1709C18.3596 16.1709 18.3912 16.1756 18.422 16.178C18.4805 16.1836 18.5397 16.1876 18.5982 16.1899H18.7112C18.7593 16.1899 18.8067 16.1899 18.8549 16.1899H18.9742L19.1069 16.1828L19.227 16.1725C19.2713 16.1685 19.3147 16.1637 19.3582 16.1582L19.4751 16.1415C19.5209 16.1343 19.5675 16.1256 19.6133 16.1168C19.6592 16.1081 19.6852 16.1033 19.7216 16.0954C19.7761 16.0827 19.8298 16.0691 19.8835 16.0548L19.9736 16.031C20.0692 16.0024 20.1632 15.9706 20.254 15.9356L20.2912 15.9197C20.4133 15.871 20.5318 15.8137 20.6459 15.7481C21.1617 15.4484 21.4193 15.0558 21.4185 14.664L21.424 16.5659C21.424 16.9561 21.1665 17.3487 20.6506 17.6483Z" fill="#1A1A1A"/>
<path d="M34.9101 18.8309L35.0555 11.9126L35.663 12.2654L18.806 21.5847L35.2577 11.5589L35.851 11.1981L35.866 11.9126L36.0106 18.8309H34.9101Z" fill="#1A1A1A"/>
<path d="M19.3329 21.2796L21.2976 20.0199L23.2726 18.7737C24.588 17.944 25.912 17.1286 27.2313 16.3052L31.205 13.8653C32.529 13.0499 33.8649 12.2551 35.1937 11.4484V12.3743C33.793 11.5931 32.39 10.8087 30.9964 10.0139L26.8094 7.63919C25.4119 6.84999 24.0255 6.04014 22.6335 5.24538L18.4623 2.83807H19.1496L14.9776 5.24538C13.588 6.04014 12.2 6.85079 10.8025 7.63998L6.61467 10.0139C5.22032 10.8087 3.81728 11.5891 2.41661 12.3712V11.45C3.74539 12.2567 5.08207 13.0507 6.40532 13.8677L10.3806 16.3068C11.7007 17.1301 13.0255 17.9448 14.3409 18.7753C15.6562 19.6058 16.9724 20.4339 18.279 21.2796C16.8981 20.5643 15.5251 19.8339 14.1536 19.1003C12.7822 18.3668 11.4179 17.6229 10.0496 16.8846L5.96134 14.6402C4.59701 13.8955 3.24532 13.1301 1.88652 12.3727L1.09099 11.9309L1.88652 11.45C3.26112 10.6203 4.63414 9.7882 6.01585 8.97199L10.1547 6.50825C11.5332 5.68568 12.9197 4.88377 14.3069 4.06994L18.4623 1.63799L18.8059 1.43692L19.1496 1.63799L23.305 4.07233C24.6891 4.88536 26.0787 5.68886 27.458 6.50904L31.5968 8.97278C32.9785 9.78979 34.3524 10.6203 35.7262 11.4508L36.5241 11.9332L35.7262 12.3767C34.3674 13.1317 33.0149 13.8987 31.6513 14.6442L27.5631 16.8862C26.1948 17.6237 24.8313 18.3708 23.4551 19.1011L21.3964 20.1979L19.3329 21.2796Z" fill="#1A1A1A"/>
<path d="M34.7726 25.75L34.9536 18.8309L35.7135 19.2728L18.806 28.5039L35.2071 18.3898L35.9434 17.936L35.9671 18.8309L36.148 25.75H34.7726Z" fill="#1A1A1A"/>
<path d="M34.7726 32.0509L34.9251 25.75L35.7285 26.2166L18.806 35.4222L35.1929 25.2835L35.9727 24.8011L35.9956 25.75L36.148 32.0509H34.7726Z" fill="#1A1A1A"/>
</g>
<defs>
<clipPath id="clip0_3753_780">
<rect width="158" height="44" fill="white"/>
</clipPath>
</defs>
</svg>
